<svg xmlns="http://www.w3.org/2000/svg" class="w-full h-full leading-none markmap mm-tk7b0m-1" style=""><style>.markmap{--markmap-max-width: 9999px;--markmap-a-color: #0097e6;--markmap-a-hover-color: #00a8ff;--markmap-code-bg: #f0f0f0;--markmap-code-color: #555;--markmap-highlight-bg: #ffeaa7;--markmap-table-border: 1px solid currentColor;--markmap-font: 300 16px/20px sans-serif;--markmap-circle-open-bg: #fff;--markmap-text-color: #333;--markmap-highlight-node-bg: #ff02;font:var(--markmap-font);color:var(--markmap-text-color)}.markmap-link{fill:none}.markmap-node&gt;circle{cursor:pointer}.markmap-foreign{display:inline-block}.markmap-foreign p{margin:0}.markmap-foreign a{color:var(--markmap-a-color)}.markmap-foreign a:hover{color:var(--markmap-a-hover-color)}.markmap-foreign code{padding:.25em;font-size:calc(1em - 2px);color:var(--markmap-code-color);background-color:var(--markmap-code-bg);border-radius:2px}.markmap-foreign pre{margin:0}.markmap-foreign pre&gt;code{display:block}.markmap-foreign del{text-decoration:line-through}.markmap-foreign em{font-style:italic}.markmap-foreign strong{font-weight:700}.markmap-foreign mark{background:var(--markmap-highlight-bg)}.markmap-foreign table,.markmap-foreign th,.markmap-foreign td{border-collapse:collapse;border:var(--markmap-table-border)}.markmap-foreign img{display:inline-block}.markmap-foreign svg{fill:currentColor}.markmap-foreign&gt;div{width:var(--markmap-max-width);text-align:left}.markmap-foreign&gt;div&gt;div{display:inline-block}.markmap-highlight rect{fill:var(--markmap-highlight-node-bg)}.markmap-dark .markmap{--markmap-code-bg: #1a1b26;--markmap-code-color: #ddd;--markmap-circle-open-bg: #444;--markmap-text-color: #eee}</style><g transform="translate(309.29717464327524,443.777814070489) scale(0.3309043286370671)"><path class="markmap-link" data-depth="4" data-path="1.2.3.4" d="M446,-154.687C486,-154.687,486,-154.781,526,-154.781" stroke-width="1.1875" stroke="rgb(188, 189, 34)"/><path class="markmap-link" data-depth="3" data-path="1.2.3" d="M244,-76.531C284,-76.531,284,-154.687,324,-154.687" stroke-width="1.375" stroke="rgb(140, 86, 75)"/><path class="markmap-link" data-depth="3" data-path="1.2.5" d="M244,-76.531C284,-76.531,284,-107.906,324,-107.906" stroke-width="1.375" stroke="rgb(127, 127, 127)"/><path class="markmap-link" data-depth="4" data-path="1.2.5.6" d="M464,-107.906C504,-107.906,504,-123.594,544,-123.594" stroke-width="1.1875" stroke="rgb(227, 119, 194)"/><path class="markmap-link" data-depth="5" data-path="1.2.5.6.7" d="M710,-123.594C750,-123.594,750,-123.641,790,-123.641" stroke-width="1.09375" stroke="rgb(44, 160, 44)"/><path class="markmap-link" data-depth="6" data-path="1.2.5.6.7.8" d="M982,-123.641C1022,-123.641,1022,-123.664,1062,-123.664" stroke-width="1.046875" stroke="rgb(127, 127, 127)"/><path class="markmap-link" data-depth="7" data-path="1.2.5.6.7.8.9" d="M1204,-123.664C1244,-123.664,1244,-198.987,1284,-198.987" stroke-width="1.0234375" stroke="rgb(214, 39, 40)"/><path class="markmap-link" data-depth="7" data-path="1.2.5.6.7.8.11" d="M1204,-123.664C1244,-123.664,1244,-146.94,1284,-146.94" stroke-width="1.0234375" stroke="rgb(127, 127, 127)"/><path class="markmap-link" data-depth="7" data-path="1.2.5.6.7.8.10" d="M1204,-123.664C1244,-123.664,1244,-172.964,1284,-172.964" stroke-width="1.0234375" stroke="rgb(148, 103, 189)"/><path class="markmap-link" data-depth="7" data-path="1.2.5.6.7.8.12" d="M1204,-123.664C1244,-123.664,1244,-120.917,1284,-120.917" stroke-width="1.0234375" stroke="rgb(31, 119, 180)"/><path class="markmap-link" data-depth="7" data-path="1.2.5.6.7.8.13" d="M1204,-123.664C1244,-123.664,1244,-94.894,1284,-94.894" stroke-width="1.0234375" stroke="rgb(214, 39, 40)"/><path class="markmap-link" data-depth="7" data-path="1.2.5.6.7.8.14" d="M1204,-123.664C1244,-123.664,1244,-48.364,1284,-48.364" stroke-width="1.0234375" stroke="rgb(227, 119, 194)"/><path class="markmap-link" data-depth="8" data-path="1.2.5.6.7.8.14.15" d="M1336,-48.364C1376,-48.364,1376,-63.876,1416,-63.876" stroke-width="1.01171875" stroke="rgb(23, 190, 207)"/><path class="markmap-link" data-depth="9" data-path="1.2.5.6.7.8.14.15.16" d="M1695,-63.876C1735,-63.876,1735,-63.879,1775,-63.879" stroke-width="1.005859375" stroke="rgb(255, 127, 14)"/><path class="markmap-link" data-depth="5" data-path="1.2.5.19.20" d="M699,-92.406C739,-92.406,739,-92.453,779,-92.453" stroke-width="1.09375" stroke="rgb(140, 86, 75)"/><path class="markmap-link" data-depth="4" data-path="1.2.5.19" d="M464,-107.906C504,-107.906,504,-92.406,544,-92.406" stroke-width="1.1875" stroke="rgb(148, 103, 189)"/><path class="markmap-link" data-depth="8" data-path="1.2.5.6.7.8.14.17" d="M1336,-48.364C1376,-48.364,1376,-32.864,1416,-32.864" stroke-width="1.01171875" stroke="rgb(31, 119, 180)"/><path class="markmap-link" data-depth="9" data-path="1.2.5.6.7.8.14.17.18" d="M1680,-32.864C1720,-32.864,1720,-32.867,1760,-32.867" stroke-width="1.005859375" stroke="rgb(227, 119, 194)"/><path class="markmap-link" data-depth="2" data-path="1.2" d="M44,11.25C84,11.25,84,-76.531,124,-76.531" stroke-width="1.75" stroke="rgb(255, 127, 14)"/><path class="markmap-link" data-depth="4" data-path="1.2.23.24" d="M450,-29.937C490,-29.937,490,-30.031,530,-30.031" stroke-width="1.1875" stroke="rgb(148, 103, 189)"/><path class="markmap-link" data-depth="4" data-path="1.2.25.26" d="M515,1.25C555,1.25,555,1.156,595,1.156" stroke-width="1.1875" stroke="rgb(227, 119, 194)"/><path class="markmap-link" data-depth="3" data-path="1.2.21" d="M244,-76.531C284,-76.531,284,-61.125,324,-61.125" stroke-width="1.375" stroke="rgb(23, 190, 207)"/><path class="markmap-link" data-depth="3" data-path="1.2.23" d="M244,-76.531C284,-76.531,284,-29.937,324,-29.937" stroke-width="1.375" stroke="rgb(227, 119, 194)"/><path class="markmap-link" data-depth="3" data-path="1.2.25" d="M244,-76.531C284,-76.531,284,1.25,324,1.25" stroke-width="1.375" stroke="rgb(140, 86, 75)"/><path class="markmap-link" data-depth="4" data-path="1.27.28.29" d="M453,98.094C493,98.094,493,32.531,533,32.531" stroke-width="1.1875" stroke="rgb(23, 190, 207)"/><path class="markmap-link" data-depth="4" data-path="1.27.28.30" d="M453,98.094C493,98.094,493,58.719,533,58.719" stroke-width="1.1875" stroke="rgb(31, 119, 180)"/><path class="markmap-link" data-depth="4" data-path="1.27.28.31" d="M453,98.094C493,98.094,493,84.906,533,84.906" stroke-width="1.1875" stroke="rgb(255, 127, 14)"/><path class="markmap-link" data-depth="4" data-path="1.27.28.32" d="M453,98.094C493,98.094,493,111.094,533,111.094" stroke-width="1.1875" stroke="rgb(44, 160, 44)"/><path class="markmap-link" data-depth="4" data-path="1.27.28.33" d="M453,98.094C493,98.094,493,137.281,533,137.281" stroke-width="1.1875" stroke="rgb(214, 39, 40)"/><path class="markmap-link" data-depth="4" data-path="1.27.28.34" d="M453,98.094C493,98.094,493,163.469,533,163.469" stroke-width="1.1875" stroke="rgb(148, 103, 189)"/><path class="markmap-link" data-depth="3" data-path="1.27.28" d="M242,98.281C282,98.281,282,98.094,322,98.094" stroke-width="1.375" stroke="rgb(188, 189, 34)"/><path class="markmap-link" data-depth="2" data-path="1.27" d="M44,11.25C84,11.25,84,98.281,124,98.281" stroke-width="1.75" stroke="rgb(127, 127, 127)"/><path class="markmap-link" data-depth="4" data-path="1.2.21.22" d="M426,-61.125C466,-61.125,466,-61.219,506,-61.219" stroke-width="1.1875" stroke="rgb(140, 86, 75)"/><g class="markmap-highlight"/><g data-depth="4" data-path="1.2.3.4" class="markmap-node" transform="translate(526, -175.375)"><line stroke="#bcbd22" stroke-width="1.1875" x1="-1" x2="158" y1="20.59375" y2="20.59375"/><foreignObject class="markmap-foreign" x="8" y="0" style="opacity: 1;" width="140" height="20"><div xmlns="http://www.w3.org/1999/xhtml"><div xmlns="http://www.w3.org/1999/xhtml">Renvoie sur accueil</div></div></foreignObject></g><g data-depth="3" data-path="1.2.3" class="markmap-node" transform="translate(324, -175.375)"><line stroke="#8c564b" stroke-width="1.375" x1="-1" x2="124" y1="20.6875" y2="20.6875"/><circle stroke-width="1.5" r="6" stroke="#8c564b" fill="var(--markmap-circle-open-bg)" cx="122" cy="20.6875"/><foreignObject class="markmap-foreign" x="8" y="0" style="opacity: 1;" width="106" height="20"><div xmlns="http://www.w3.org/1999/xhtml"><div xmlns="http://www.w3.org/1999/xhtml">Bouton Accueil</div></div></foreignObject></g><g data-depth="5" data-path="1.2.5.19.20" class="markmap-node" transform="translate(779, -113)"><line stroke="#8c564b" stroke-width="1.09375" x1="-1" x2="183" y1="20.546875" y2="20.546875"/><foreignObject class="markmap-foreign" x="8" y="0" style="opacity: 1;" width="165" height="20"><div xmlns="http://www.w3.org/1999/xhtml"><div xmlns="http://www.w3.org/1999/xhtml">Formulaire d'inscription</div></div></foreignObject></g><g data-depth="4" data-path="1.2.5.19" class="markmap-node" transform="translate(544, -113)"><line stroke="#9467bd" stroke-width="1.1875" x1="-1" x2="157" y1="20.59375" y2="20.59375"/><circle stroke-width="1.5" r="6" stroke="#9467bd" fill="var(--markmap-circle-open-bg)" cx="155" cy="20.59375"/><foreignObject class="markmap-foreign" x="8" y="0" style="opacity: 1;" width="139" height="20"><div xmlns="http://www.w3.org/1999/xhtml"><div xmlns="http://www.w3.org/1999/xhtml">Bouton d'inscription</div></div></foreignObject></g><g data-depth="3" data-path="1.2.5" class="markmap-node" transform="translate(324, -128.59375)"><line stroke="#7f7f7f" stroke-width="1.375" x1="-1" x2="142" y1="20.6875" y2="20.6875"/><foreignObject class="markmap-foreign" x="8" y="0" style="opacity: 1;" width="124" height="20"><div xmlns="http://www.w3.org/1999/xhtml"><div xmlns="http://www.w3.org/1999/xhtml">Bouton utilisateur</div></div></foreignObject><circle stroke-width="1.5" r="6" stroke="#7f7f7f" fill="var(--markmap-circle-open-bg)" cx="140" cy="20.6875"/></g><g data-depth="7" data-path="1.2.5.6.7.8.9" class="markmap-node" transform="translate(1284, -219.4990234375)"><line stroke="#d62728" stroke-width="1.0234375" x1="-1" x2="133" y1="20.51171875" y2="20.51171875"/><foreignObject class="markmap-foreign" x="8" y="0" style="opacity: 1;" width="115" height="20"><div xmlns="http://www.w3.org/1999/xhtml"><div xmlns="http://www.w3.org/1999/xhtml">Tableau de bord</div></div></foreignObject></g><g data-depth="7" data-path="1.2.5.6.7.8.10" class="markmap-node" transform="translate(1284, -193.4755859375)"><line stroke="#9467bd" stroke-width="1.0234375" x1="-1" x2="83" y1="20.51171875" y2="20.51171875"/><foreignObject class="markmap-foreign" x="8" y="0" style="opacity: 1;" width="65" height="20"><div xmlns="http://www.w3.org/1999/xhtml"><div xmlns="http://www.w3.org/1999/xhtml">Ma place</div></div></foreignObject></g><g data-depth="7" data-path="1.2.5.6.7.8.11" class="markmap-node" transform="translate(1284, -167.4521484375)"><line stroke="#7f7f7f" stroke-width="1.0234375" x1="-1" x2="271" y1="20.51171875" y2="20.51171875"/><foreignObject class="markmap-foreign" x="8" y="0" style="opacity: 1;" width="253" height="20"><div xmlns="http://www.w3.org/1999/xhtml"><div xmlns="http://www.w3.org/1999/xhtml">Formulaire demande de réservation</div></div></foreignObject></g><g data-depth="7" data-path="1.2.5.6.7.8.12" class="markmap-node" transform="translate(1284, -141.4287109375)"><line stroke="#1f77b4" stroke-width="1.0234375" x1="-1" x2="44" y1="20.51171875" y2="20.51171875"/><foreignObject class="markmap-foreign" x="8" y="0" style="opacity: 1;" width="26" height="20"><div xmlns="http://www.w3.org/1999/xhtml"><div xmlns="http://www.w3.org/1999/xhtml">File</div></div></foreignObject></g><g data-depth="7" data-path="1.2.5.6.7.8.13" class="markmap-node" transform="translate(1284, -115.4052734375)"><line stroke="#d62728" stroke-width="1.0234375" x1="-1" x2="90" y1="20.51171875" y2="20.51171875"/><foreignObject class="markmap-foreign" x="8" y="0" style="opacity: 1;" width="72" height="20"><div xmlns="http://www.w3.org/1999/xhtml"><div xmlns="http://www.w3.org/1999/xhtml">Historique</div></div></foreignObject></g><g data-depth="9" data-path="1.2.5.6.7.8.14.15.16" class="markmap-node" transform="translate(1775, -84.3818359375)"><line stroke="#ff7f0e" stroke-width="1.005859375" x1="-1" x2="307" y1="20.5029296875" y2="20.5029296875"/><foreignObject class="markmap-foreign" x="8" y="0" style="opacity: 1;" width="289" height="20"><div xmlns="http://www.w3.org/1999/xhtml"><div xmlns="http://www.w3.org/1999/xhtml">Formulaire modification de mot de passe</div></div></foreignObject></g><g data-depth="8" data-path="1.2.5.6.7.8.14.15" class="markmap-node" transform="translate(1416, -84.3818359375)"><line stroke="#17becf" stroke-width="1.01171875" x1="-1" x2="281" y1="20.505859375" y2="20.505859375"/><foreignObject class="markmap-foreign" x="8" y="0" style="opacity: 1;" width="263" height="20"><div xmlns="http://www.w3.org/1999/xhtml"><div xmlns="http://www.w3.org/1999/xhtml">Bouton modification de mot de passe</div></div></foreignObject><circle stroke-width="1.5" r="6" stroke="#17becf" fill="var(--markmap-circle-open-bg)" cx="279" cy="20.505859375"/></g><g data-depth="9" data-path="1.2.5.6.7.8.14.17.18" class="markmap-node" transform="translate(1760, -53.3701171875)"><line stroke="#e377c2" stroke-width="1.005859375" x1="-1" x2="291" y1="20.5029296875" y2="20.5029296875"/><foreignObject class="markmap-foreign" x="8" y="0" style="opacity: 1;" width="273" height="20"><div xmlns="http://www.w3.org/1999/xhtml"><div xmlns="http://www.w3.org/1999/xhtml">Formulaire modification d'adresse mail</div></div></foreignObject></g><g data-depth="8" data-path="1.2.5.6.7.8.14.17" class="markmap-node" transform="translate(1416, -53.3701171875)"><line stroke="#1f77b4" stroke-width="1.01171875" x1="-1" x2="266" y1="20.505859375" y2="20.505859375"/><foreignObject class="markmap-foreign" x="8" y="0" style="opacity: 1;" width="248" height="20"><div xmlns="http://www.w3.org/1999/xhtml"><div xmlns="http://www.w3.org/1999/xhtml">Bouton modification d'adresse mail</div></div></foreignObject><circle stroke-width="1.5" r="6" stroke="#1f77b4" fill="var(--markmap-circle-open-bg)" cx="264" cy="20.505859375"/></g><g data-depth="7" data-path="1.2.5.6.7.8.14" class="markmap-node" transform="translate(1284, -68.8759765625)"><line stroke="#e377c2" stroke-width="1.0234375" x1="-1" x2="54" y1="20.51171875" y2="20.51171875"/><circle stroke-width="1.5" r="6" stroke="#e377c2" fill="var(--markmap-circle-open-bg)" cx="52" cy="20.51171875"/><foreignObject class="markmap-foreign" x="8" y="0" style="opacity: 1;" width="36" height="20"><div xmlns="http://www.w3.org/1999/xhtml"><div xmlns="http://www.w3.org/1999/xhtml">Profil</div></div></foreignObject></g><g data-depth="6" data-path="1.2.5.6.7.8" class="markmap-node" transform="translate(1062, -144.1875)"><line stroke="#7f7f7f" stroke-width="1.046875" x1="-1" x2="144" y1="20.5234375" y2="20.5234375"/><circle stroke-width="1.5" r="6" stroke="#7f7f7f" fill="var(--markmap-circle-open-bg)" cx="142" cy="20.5234375"/><foreignObject class="markmap-foreign" x="8" y="0" style="opacity: 1;" width="126" height="20"><div xmlns="http://www.w3.org/1999/xhtml"><div xmlns="http://www.w3.org/1999/xhtml">Espace utilisateur</div></div></foreignObject></g><g data-depth="5" data-path="1.2.5.6.7" class="markmap-node" transform="translate(790, -144.1875)"><line stroke="#2ca02c" stroke-width="1.09375" x1="-1" x2="194" y1="20.546875" y2="20.546875"/><circle stroke-width="1.5" r="6" stroke="#2ca02c" fill="var(--markmap-circle-open-bg)" cx="192" cy="20.546875"/><foreignObject class="markmap-foreign" x="8" y="0" style="opacity: 1;" width="176" height="20"><div xmlns="http://www.w3.org/1999/xhtml"><div xmlns="http://www.w3.org/1999/xhtml">Formulaire de connexion</div></div></foreignObject></g><g data-depth="4" data-path="1.2.5.6" class="markmap-node" transform="translate(544, -144.1875)"><line stroke="#e377c2" stroke-width="1.1875" x1="-1" x2="168" y1="20.59375" y2="20.59375"/><circle stroke-width="1.5" r="6" stroke="#e377c2" fill="var(--markmap-circle-open-bg)" cx="166" cy="20.59375"/><foreignObject class="markmap-foreign" x="8" y="0" style="opacity: 1;" width="150" height="20"><div xmlns="http://www.w3.org/1999/xhtml"><div xmlns="http://www.w3.org/1999/xhtml">Bouton de connexion</div></div></foreignObject></g><g data-depth="4" data-path="1.2.21.22" class="markmap-node" transform="translate(506, -81.8125)"><line stroke="#8c564b" stroke-width="1.1875" x1="-1" x2="199" y1="20.59375" y2="20.59375"/><foreignObject class="markmap-foreign" x="8" y="0" style="opacity: 1;" width="181" height="20"><div xmlns="http://www.w3.org/1999/xhtml"><div xmlns="http://www.w3.org/1999/xhtml">Documentation utilisateur</div></div></foreignObject></g><g data-depth="3" data-path="1.2.21" class="markmap-node" transform="translate(324, -81.8125)"><line stroke="#17becf" stroke-width="1.375" x1="-1" x2="104" y1="20.6875" y2="20.6875"/><circle stroke-width="1.5" r="6" stroke="#17becf" fill="var(--markmap-circle-open-bg)" cx="102" cy="20.6875"/><foreignObject class="markmap-foreign" x="8" y="0" style="opacity: 1;" width="86" height="20"><div xmlns="http://www.w3.org/1999/xhtml"><div xmlns="http://www.w3.org/1999/xhtml">Bouton Aide</div></div></foreignObject></g><g data-depth="4" data-path="1.2.23.24" class="markmap-node" transform="translate(530, -50.625)"><line stroke="#9467bd" stroke-width="1.1875" x1="-1" x2="151" y1="20.59375" y2="20.59375"/><foreignObject class="markmap-foreign" x="8" y="0" style="opacity: 1;" width="133" height="20"><div xmlns="http://www.w3.org/1999/xhtml"><div xmlns="http://www.w3.org/1999/xhtml">Formulaire contact</div></div></foreignObject></g><g data-depth="3" data-path="1.2.23" class="markmap-node" transform="translate(324, -50.625)"><line stroke="#e377c2" stroke-width="1.375" x1="-1" x2="128" y1="20.6875" y2="20.6875"/><circle stroke-width="1.5" r="6" stroke="#e377c2" fill="var(--markmap-circle-open-bg)" cx="126" cy="20.6875"/><foreignObject class="markmap-foreign" x="8" y="0" style="opacity: 1;" width="110" height="20"><div xmlns="http://www.w3.org/1999/xhtml"><div xmlns="http://www.w3.org/1999/xhtml">Bouton Contact</div></div></foreignObject></g><g data-depth="4" data-path="1.2.25.26" class="markmap-node" transform="translate(595, -19.4375)"><line stroke="#e377c2" stroke-width="1.1875" x1="-1" x2="161" y1="20.59375" y2="20.59375"/><foreignObject class="markmap-foreign" x="8" y="0" style="opacity: 1;" width="143" height="20"><div xmlns="http://www.w3.org/1999/xhtml"><div xmlns="http://www.w3.org/1999/xhtml">Informations légales</div></div></foreignObject></g><g data-depth="3" data-path="1.2.25" class="markmap-node" transform="translate(324, -19.4375)"><line stroke="#8c564b" stroke-width="1.375" x1="-1" x2="193" y1="20.6875" y2="20.6875"/><circle stroke-width="1.5" r="6" stroke="#8c564b" fill="var(--markmap-circle-open-bg)" cx="191" cy="20.6875"/><foreignObject class="markmap-foreign" x="8" y="0" style="opacity: 1;" width="175" height="20"><div xmlns="http://www.w3.org/1999/xhtml"><div xmlns="http://www.w3.org/1999/xhtml">Bouton mentions légales</div></div></foreignObject></g><g data-depth="2" data-path="1.2" class="markmap-node" transform="translate(124, -97.40625)"><line stroke="#ff7f0e" stroke-width="1.75" x1="-1" x2="122" y1="20.875" y2="20.875"/><circle stroke-width="1.5" r="6" stroke="#ff7f0e" fill="var(--markmap-circle-open-bg)" cx="120" cy="20.875"/><foreignObject class="markmap-foreign" x="8" y="0" style="opacity: 1;" width="104" height="20"><div xmlns="http://www.w3.org/1999/xhtml"><div xmlns="http://www.w3.org/1999/xhtml">Page d'accueil</div></div></foreignObject></g><g data-depth="4" data-path="1.27.28.29" class="markmap-node" transform="translate(533, 11.9375)"><line stroke="#17becf" stroke-width="1.1875" x1="-1" x2="97" y1="20.59375" y2="20.59375"/><foreignObject class="markmap-foreign" x="8" y="0" style="opacity: 1;" width="79" height="20"><div xmlns="http://www.w3.org/1999/xhtml"><div xmlns="http://www.w3.org/1999/xhtml">Utilisateurs</div></div></foreignObject></g><g data-depth="4" data-path="1.27.28.30" class="markmap-node" transform="translate(533, 38.125)"><line stroke="#1f77b4" stroke-width="1.1875" x1="-1" x2="173" y1="20.59375" y2="20.59375"/><foreignObject class="markmap-foreign" x="8" y="0" style="opacity: 1;" width="155" height="20"><div xmlns="http://www.w3.org/1999/xhtml"><div xmlns="http://www.w3.org/1999/xhtml">Gestion place parking</div></div></foreignObject></g><g data-depth="4" data-path="1.27.28.31" class="markmap-node" transform="translate(533, 64.3125)"><line stroke="#ff7f0e" stroke-width="1.1875" x1="-1" x2="159" y1="20.59375" y2="20.59375"/><foreignObject class="markmap-foreign" x="8" y="0" style="opacity: 1;" width="141" height="20"><div xmlns="http://www.w3.org/1999/xhtml"><div xmlns="http://www.w3.org/1999/xhtml">Attribution manuelle</div></div></foreignObject></g><g data-depth="4" data-path="1.27.28.32" class="markmap-node" transform="translate(533, 90.5)"><line stroke="#2ca02c" stroke-width="1.1875" x1="-1" x2="167" y1="20.59375" y2="20.59375"/><foreignObject class="markmap-foreign" x="8" y="0" style="opacity: 1;" width="149" height="20"><div xmlns="http://www.w3.org/1999/xhtml"><div xmlns="http://www.w3.org/1999/xhtml">Suivi des réservation</div></div></foreignObject></g><g data-depth="4" data-path="1.27.28.33" class="markmap-node" transform="translate(533, 116.6875)"><line stroke="#d62728" stroke-width="1.1875" x1="-1" x2="302" y1="20.59375" y2="20.59375"/><foreignObject class="markmap-foreign" x="8" y="0" style="opacity: 1;" width="284" height="20"><div xmlns="http://www.w3.org/1999/xhtml"><div xmlns="http://www.w3.org/1999/xhtml">Consultation /Edition de la liste d'attente</div></div></foreignObject></g><g data-depth="4" data-path="1.27.28.34" class="markmap-node" transform="translate(533, 142.875)"><line stroke="#9467bd" stroke-width="1.1875" x1="-1" x2="203" y1="20.59375" y2="20.59375"/><foreignObject class="markmap-foreign" x="8" y="0" style="opacity: 1;" width="185" height="20"><div xmlns="http://www.w3.org/1999/xhtml"><div xmlns="http://www.w3.org/1999/xhtml">Historique des attributions</div></div></foreignObject></g><g data-depth="3" data-path="1.27.28" class="markmap-node" transform="translate(322, 77.40625)"><line stroke="#bcbd22" stroke-width="1.375" x1="-1" x2="133" y1="20.6875" y2="20.6875"/><circle stroke-width="1.5" r="6" stroke="#bcbd22" fill="var(--markmap-circle-open-bg)" cx="131" cy="20.6875"/><foreignObject class="markmap-foreign" x="8" y="0" style="opacity: 1;" width="115" height="20"><div xmlns="http://www.w3.org/1999/xhtml"><div xmlns="http://www.w3.org/1999/xhtml">Tableau de bord</div></div></foreignObject></g><g data-depth="2" data-path="1.27" class="markmap-node" transform="translate(124, 77.40625)"><line stroke="#7f7f7f" stroke-width="1.75" x1="-1" x2="120" y1="20.875" y2="20.875"/><circle stroke-width="1.5" r="6" stroke="#7f7f7f" fill="var(--markmap-circle-open-bg)" cx="118" cy="20.875"/><foreignObject class="markmap-foreign" x="8" y="0" style="opacity: 1;" width="102" height="20"><div xmlns="http://www.w3.org/1999/xhtml"><div xmlns="http://www.w3.org/1999/xhtml">Espace Admin</div></div></foreignObject></g><g data-depth="1" data-path="1" class="markmap-node" transform="translate(0,-10)"><line stroke="#1f77b4" stroke-width="2.5" x1="-1" x2="46" y1="21.25" y2="21.25"/><foreignObject class="markmap-foreign" x="8" y="0" style="opacity: 1;" width="28" height="20"><div xmlns="http://www.w3.org/1999/xhtml"><div xmlns="http://www.w3.org/1999/xhtml">Site</div></div></foreignObject><circle stroke-width="1.5" r="6" stroke="#1f77b4" fill="var(--markmap-circle-open-bg)" cx="44" cy="21.25"/></g></g></svg>