<?xml version="1.0" encoding="utf-8"?>
<!-- Generated by Mocodo 4.3.2 -->
<svg width="800" height="500" viewBox="0 0 800 500" xmlns="http://www.w3.org/2000/svg">
<rect x="0" y="0" width="800" height="500" fill="#ffffff" stroke="none" stroke-width="0"/>

<!-- Association RESERVER -->
<g>
	<line x1="54" y1="77" x2="173" y2="77" stroke="#d6604d" stroke-width="2"/>
	<line x1="345" y1="77" x2="173" y2="77" stroke="#d6604d" stroke-width="2"/>
	<g>
		<path d="M199 52 a14 14 90 0 1 14 14 V77 h-80 V66 a14 14 90 0 1 14 -14" fill="#f4a582" stroke="#f4a582" stroke-width="0"/>
		<path d="M213 77 v11 a14 14 90 0 1 -14 14 H147 a14 14 90 0 1 -14 -14 V77 H80" fill="#fddbc7" stroke="#fddbc7" stroke-width="0"/>
		<rect x="133" y="52" width="80" height="50" fill="none" rx="14" stroke="#d6604d" stroke-width="2"/>
		<line x1="133" y1="77" x2="213" y2="77" stroke="#d6604d" stroke-width="1"/>
		<text x="141" y="69.75" fill="#000000" font-family="Verdana" font-size="12">RESERVER</text>
	</g>
	<text x="104" y="69" fill="#4d4d4d" font-family="Verdana" font-size="12">1,N</text>
	<text x="270" y="94" fill="#4d4d4d" font-family="Verdana" font-size="12">1,1</text>
</g>

<!-- Association AFFECTER -->
<g>
	<line x1="345" y1="77" x2="466" y2="77" stroke="#d6604d" stroke-width="2"/>
	<line x1="569" y1="77" x2="466" y2="77" stroke="#d6604d" stroke-width="2"/>
	<g>
		<path d="M490 52 a14 14 90 0 1 14 14 V77 h-76 V66 a14 14 90 0 1 14 -14" fill="#f4a582" stroke="#f4a582" stroke-width="0"/>
		<path d="M504 77 v11 a14 14 90 0 1 -14 14 H442 a14 14 90 0 1 -14 -14 V77 H76" fill="#fddbc7" stroke="#fddbc7" stroke-width="0"/>
		<rect x="428" y="52" width="76" height="50" fill="none" rx="14" stroke="#d6604d" stroke-width="2"/>
		<line x1="428" y1="77" x2="504" y2="77" stroke="#d6604d" stroke-width="1"/>
		<text x="435" y="69.75" fill="#000000" font-family="Verdana" font-size="12">AFFECTER</text>
	</g>
	<text x="399" y="94" fill="#4d4d4d" font-family="Verdana" font-size="12">1,1</text>
	<text x="511" y="69" fill="#4d4d4d" font-family="Verdana" font-size="12">0,N</text>
</g>

<!-- Association EN_ATTENTE -->
<g>
	<line x1="54" y1="77" x2="56" y2="200" stroke="#d6604d" stroke-width="2"/>
	<line x1="60" y1="300" x2="56" y2="200" stroke="#d6604d" stroke-width="2"/>
	<g>
		<path d="M89 175 a14 14 90 0 1 14 14 V200 h-94 V189 a14 14 90 0 1 14 -14" fill="#f4a582" stroke="#f4a582" stroke-width="0"/>
		<path d="M103 200 v11 a14 14 90 0 1 -14 14 H23 a14 14 90 0 1 -14 -14 V200 H94" fill="#fddbc7" stroke="#fddbc7" stroke-width="0"/>
		<rect x="9" y="175" width="94" height="50" fill="none" rx="14" stroke="#d6604d" stroke-width="2"/>
		<line x1="9" y1="200" x2="103" y2="200" stroke="#d6604d" stroke-width="1"/>
		<text x="16" y="192.75" fill="#000000" font-family="Verdana" font-size="12">EN_ATTENTE</text>
	</g>
	<text x="29.22" y="162" fill="#4d4d4d" font-family="Verdana" font-size="12">0,1</text>
	<text x="63.03" y="250" fill="#4d4d4d" font-family="Verdana" font-size="12">1,1</text>
</g>

<!-- Association ARCHIVER_UTILISATEUR -->
<g>
	<line x1="54" y1="77" x2="250" y2="200" stroke="#d6604d" stroke-width="2"/>
	<line x1="250" y1="320" x2="250" y2="200" stroke="#d6604d" stroke-width="2"/>
	<g>
		<path d="M320 175 a14 14 90 0 1 14 14 V200 h-168 V189 a14 14 90 0 1 14 -14" fill="#f4a582" stroke="#f4a582" stroke-width="0"/>
		<path d="M334 200 v11 a14 14 90 0 1 -14 14 H180 a14 14 90 0 1 -14 -14 V200 H168" fill="#fddbc7" stroke="#fddbc7" stroke-width="0"/>
		<rect x="166" y="175" width="168" height="50" fill="none" rx="14" stroke="#d6604d" stroke-width="2"/>
		<line x1="166" y1="200" x2="334" y2="200" stroke="#d6604d" stroke-width="1"/>
		<text x="174" y="192.75" fill="#000000" font-family="Verdana" font-size="12">ARCHIVER_UTILISATEUR</text>
	</g>
	<text x="104" y="102.08" fill="#4d4d4d" font-family="Verdana" font-size="12">1,1</text>
	<text x="223" y="270" fill="#4d4d4d" font-family="Verdana" font-size="12">0,N</text>
</g>

<!-- Association ARCHIVER_PLACE -->
<g>
	<line x1="569" y1="77" x2="500" y2="250" stroke="#d6604d" stroke-width="2"/>
	<line x1="250" y1="320" x2="500" y2="250" stroke="#d6604d" stroke-width="2"/>
	<g>
		<path d="M548 225 a14 14 90 0 1 14 14 V250 h-124 V239 a14 14 90 0 1 14 -14" fill="#f4a582" stroke="#f4a582" stroke-width="0"/>
		<path d="M562 250 v11 a14 14 90 0 1 -14 14 H452 a14 14 90 0 1 -14 -14 V250 H124" fill="#fddbc7" stroke="#fddbc7" stroke-width="0"/>
		<rect x="438" y="225" width="124" height="50" fill="none" rx="14" stroke="#d6604d" stroke-width="2"/>
		<line x1="438" y1="250" x2="562" y2="250" stroke="#d6604d" stroke-width="1"/>
		<text x="445" y="242.75" fill="#000000" font-family="Verdana" font-size="12">ARCHIVER_PLACE</text>
	</g>
	<text x="554.13" y="136" fill="#4d4d4d" font-family="Verdana" font-size="12">1,1</text>
	<text x="309" y="319.71" fill="#4d4d4d" font-family="Verdana" font-size="12">0,N</text>
</g>

<!-- Entity UTILISATEUR -->
<g>
	<g>
		<rect x="9" y="9" width="90" height="25" fill="#bababa" stroke="none" stroke-width="0" opacity="1"/>
		<rect x="9" y="34" width="90" height="111" fill="#e0e0e0" stroke="none" stroke-width="0" opacity="1"/>
		<rect x="9" y="9" width="90" height="136" fill="none" stroke="#878787" stroke-width="2" opacity="1"/>
		<line x1="9" y1="34" x2="99" y2="34" stroke="#878787" stroke-width="1"/>
	</g>
	<text x="23" y="26.75" fill="#000000" font-family="Verdana" font-size="12">Utilisateur</text>
	<text x="14" y="51.8" fill="#000000" font-family="Verdana" font-size="12">id_utilisateur</text>
	<line x1="14" y1="54" x2="94" y2="54" stroke="#000000" stroke-width="1"/>
	<text x="14" y="68.8" fill="#000000" font-family="Verdana" font-size="12">nom</text>
	<text x="14" y="85.8" fill="#000000" font-family="Verdana" font-size="12">prenom</text>
	<text x="14" y="102.8" fill="#000000" font-family="Verdana" font-size="12">email</text>
	<text x="14" y="119.8" fill="#000000" font-family="Verdana" font-size="12">mdp</text>
	<text x="14" y="136.8" fill="#000000" font-family="Verdana" font-size="12">role</text>
</g>

<!-- Entity RESERVATION -->
<g>
	<g>
		<rect x="296" y="26" width="98" height="25" fill="#bababa" stroke="none" stroke-width="0" opacity="1"/>
		<rect x="296" y="51" width="98" height="77" fill="#e0e0e0" stroke="none" stroke-width="0" opacity="1"/>
		<rect x="296" y="26" width="98" height="102" fill="none" stroke="#878787" stroke-width="2" opacity="1"/>
		<line x1="296" y1="51" x2="394" y2="51" stroke="#878787" stroke-width="1"/>
	</g>
	<text x="301" y="43.75" fill="#000000" font-family="Verdana" font-size="12">RESERVATION</text>
	<text x="301" y="68.8" fill="#000000" font-family="Verdana" font-size="12">id_reservation</text>
	<line x1="301" y1="71" x2="388" y2="71" stroke="#000000" stroke-width="1"/>
	<text x="301" y="85.8" fill="#000000" font-family="Verdana" font-size="12">date_debut</text>
	<text x="301" y="102.8" fill="#000000" font-family="Verdana" font-size="12">date_fin</text>
	<text x="301" y="119.8" fill="#000000" font-family="Verdana" font-size="12">statut</text>
</g>

<!-- Entity PLACE -->
<g>
	<g>
		<rect x="538" y="35" width="62" height="25" fill="#bababa" stroke="none" stroke-width="0" opacity="1"/>
		<rect x="538" y="60" width="62" height="59" fill="#e0e0e0" stroke="none" stroke-width="0" opacity="1"/>
		<rect x="538" y="35" width="62" height="84" fill="none" stroke="#878787" stroke-width="2" opacity="1"/>
		<line x1="538" y1="60" x2="600" y2="60" stroke="#878787" stroke-width="1"/>
	</g>
	<text x="550" y="52.75" fill="#000000" font-family="Verdana" font-size="12">PLACE</text>
	<text x="543" y="77.8" fill="#000000" font-family="Verdana" font-size="12">id_place</text>
	<line x1="543" y1="80" x2="594" y2="80" stroke="#000000" stroke-width="1"/>
	<text x="543" y="94.8" fill="#000000" font-family="Verdana" font-size="12">numero</text>
	<text x="543" y="111.8" fill="#000000" font-family="Verdana" font-size="12">statut</text>
</g>

<!-- Entity LISTE_ATTENTE -->
<g>
	<g>
		<rect x="6" y="258" width="108" height="25" fill="#bababa" stroke="none" stroke-width="0" opacity="1"/>
		<rect x="6" y="283" width="108" height="59" fill="#e0e0e0" stroke="none" stroke-width="0" opacity="1"/>
		<rect x="6" y="258" width="108" height="84" fill="none" stroke="#878787" stroke-width="2" opacity="1"/>
		<line x1="6" y1="283" x2="114" y2="283" stroke="#878787" stroke-width="1"/>
	</g>
	<text x="11" y="275.75" fill="#000000" font-family="Verdana" font-size="12">LISTE_ATTENTE</text>
	<text x="11" y="300.8" fill="#000000" font-family="Verdana" font-size="12">id_attente</text>
	<line x1="11" y1="303" x2="74" y2="303" stroke="#000000" stroke-width="1"/>
	<text x="11" y="317.8" fill="#000000" font-family="Verdana" font-size="12">rang</text>
	<text x="11" y="334.8" fill="#000000" font-family="Verdana" font-size="12">date_demande</text>
</g>

<!-- Entity HISTORIQUE -->
<g>
	<g>
		<rect x="196" y="278" width="108" height="25" fill="#bababa" stroke="none" stroke-width="0" opacity="1"/>
		<rect x="196" y="303" width="108" height="59" fill="#e0e0e0" stroke="none" stroke-width="0" opacity="1"/>
		<rect x="196" y="278" width="108" height="84" fill="none" stroke="#878787" stroke-width="2" opacity="1"/>
		<line x1="196" y1="303" x2="304" y2="303" stroke="#878787" stroke-width="1"/>
	</g>
	<text x="211" y="295.75" fill="#000000" font-family="Verdana" font-size="12">HISTORIQUE</text>
	<text x="201" y="320.8" fill="#000000" font-family="Verdana" font-size="12">id_historique</text>
	<line x1="201" y1="323" x2="280" y2="323" stroke="#000000" stroke-width="1"/>
	<text x="201" y="337.8" fill="#000000" font-family="Verdana" font-size="12">date_attribution</text>
	<text x="201" y="354.8" fill="#000000" font-family="Verdana" font-size="12">date_fin</text>
</g>
</svg>